HIERARCHY
ROOT Hips
{
 OFFSET 0.000000 0.000000 0.000000
 CHANNELS 6 Xposition Yposition Zposition Yrotation Xrotation Zrotation
 JOINT Chest
 {
  OFFSET 0.000000 10.383400 0.001500
  CHANNELS 3 Yrotation Xrotation Zrotation
  JOINT Chest2
  {
   OFFSET 0.000000 10.418200 -0.003100
   CHANNELS 3 Yrotation Xrotation Zrotation
   JOINT Chest3
   {
    OFFSET 0.000000 10.375100 0.000000
    CHANNELS 3 Yrotation Xrotation Zrotation
    JOINT Chest4
    {
     OFFSET 0.000000 10.364600 0.000000
     CHANNELS 3 Yrotation Xrotation Zrotation
     JOINT Neck
     {
      OFFSET 0.000000 15.642200 0.000000
      CHANNELS 3 Yrotation Xrotation Zrotation
      JOINT Head
      {
       OFFSET 0.000000 9.697300 -0.006500
       CHANNELS 3 Yrotation Xrotation Zrotation
       End Site
       {
        OFFSET 0.000000 18.492200 -0.003400
       }
      }
     }
     JOINT RightCollar
     {
      OFFSET -3.166800 10.349300 0.000000
      CHANNELS 3 Yrotation Xrotation Zrotation
      JOINT RightShoulder
      {
       OFFSET -14.729700 0.000000 0.000000
       CHANNELS 3 Yrotation Xrotation Zrotation
       JOINT RightElbow
       {
        OFFSET 0.000000 -32.224300 0.000000
        CHANNELS 3 Yrotation Xrotation Zrotation
        JOINT RightWrist
        {
         OFFSET 0.000000 -26.084100 0.000000
         CHANNELS 3 Yrotation Xrotation Zrotation
         End Site
         {
          OFFSET 0.000000 -19.319400 0.000000
         }
        }
       }
      }
     }
     JOINT LeftCollar
     {
      OFFSET 3.166800 10.349300 0.000000
      CHANNELS 3 Yrotation Xrotation Zrotation
      JOINT LeftShoulder
      {
       OFFSET 14.729700 0.000000 0.000000
       CHANNELS 3 Yrotation Xrotation Zrotation
       JOINT LeftElbow
       {
        OFFSET 0.000000 -32.224300 0.000000
        CHANNELS 3 Yrotation Xrotation Zrotation
        JOINT LeftWrist
        {
         OFFSET 0.000000 -26.084100 0.000000
         CHANNELS 3 Yrotation Xrotation Zrotation
         End Site
         {
          OFFSET 0.000000 -19.319400 0.000000
         }
        }
       }
      }
     }
    }
   }
  }
 }
 JOINT RightHip
 {
  OFFSET -8.428900 -0.007500 -0.000800
  CHANNELS 3 Yrotation Xrotation Zrotation
  JOINT RightKnee
  {
   OFFSET 0.000000 -43.834600 0.000700
   CHANNELS 3 Yrotation Xrotation Zrotation
   JOINT RightAnkle
   {
    OFFSET 0.000000 -42.757000 0.001200
    CHANNELS 3 Yrotation Xrotation Zrotation
    JOINT RightToe
    {
     OFFSET 0.000000 -6.946900 15.649300
     CHANNELS 3 Yrotation Xrotation Zrotation
     End Site
     {
      OFFSET 0.000000 -1.580800 6.825800
     }
    }
   }
  }
 }
 JOINT LeftHip
 {
  OFFSET 8.428900 -0.007500 -0.000800
  CHANNELS 3 Yrotation Xrotation Zrotation
  JOINT LeftKnee
  {
   OFFSET 0.000000 -43.834600 0.000700
   CHANNELS 3 Yrotation Xrotation Zrotation
   JOINT LeftAnkle
   {
    OFFSET 0.000000 -42.757000 0.001200
    CHANNELS 3 Yrotation Xrotation Zrotation
    JOINT LeftToe
    {
     OFFSET 0.000000 -6.946900 15.649300
     CHANNELS 3 Yrotation Xrotation Zrotation
     End Site
     {
      OFFSET 0.000000 -1.580800 6.825800
     }
    }
   }
  }
 }
}
MOTION
Frames: 16
Frame Time: 0.008333
22.548699 126.928645 -47.206427 -15.346711 -28.016579 -1.985330 -0.391004 23.698634 1.697126 -0.104173 3.543292 0.261505 -0.157489 5.698492 0.417368 -0.380676 19.837152 1.434110 2.998670 9.489021 -2.153380 6.814233 -17.989814 -5.567975 -4.138968 -2.955195 -4.372085 -1.157595 -11.440146 -2.031051 -1.008901 -9.544129 -6.024128 0.094762 -0.843011 3.171824 -2.643337 -5.914127 -3.117795 4.313073 -5.927280 8.658458 -9.444322 -16.073501 8.102090 -8.523790 -4.004947 -2.656419 0.326428 -41.715670 0.182696 -26.637264 76.533200 -29.018993 0.720617 -5.962444 6.961013 -0.003598 -0.008907 -0.001597 -7.150924 -35.509191 -4.172754 -1.239562 69.619190 2.832501 -11.792989 -5.050557 -4.850581 -0.004102 0.006020 -0.001821
22.549764 126.927475 -47.204689 -15.359721 -28.003748 -1.967899 -0.388136 23.692162 1.683911 -0.104006 3.545455 0.262152 -0.154549 5.695311 0.415959 -0.376089 19.835577 1.428004 2.982082 9.471412 -2.139797 6.803863 -18.000709 -5.555135 -4.143526 -2.956258 -4.359039 -1.163918 -11.447149 -2.045567 -0.983287 -9.548194 -6.011571 0.082253 -0.834421 3.171592 -2.652212 -5.920932 -3.112128 4.314471 -5.934014 8.664283 -9.513693 -16.107400 8.123794 -8.536049 -3.987296 -2.594796 0.240834 -41.729097 0.209534 -26.496414 76.552649 -28.940219 0.738211 -5.972336 6.952877 -0.011137 -0.010805 -0.004943 -7.172207 -35.517899 -4.176099 -1.227895 69.614337 2.826290 -11.785825 -5.045925 -4.844287 -0.002978 0.006097 -0.001322
22.548154 126.926622 -47.203494 -15.368433 -27.995898 -1.966687 -0.379673 23.694109 1.689715 -0.105478 3.539261 0.260115 -0.152446 5.693303 0.415305 -0.371986 19.840087 1.420455 2.964779 9.451324 -2.122568 6.723468 -18.078222 -5.492632 -4.149171 -2.959817 -4.346697 -1.163393 -11.454360 -2.057367 -0.970333 -9.551255 -6.002906 0.082327 -0.837357 3.178617 -2.667053 -5.934593 -3.108136 4.316141 -5.945644 8.673018 -9.576726 -16.136561 8.140891 -8.538250 -3.973525 -2.514115 0.198233 -41.738167 0.232733 -26.466068 76.557326 -28.926101 0.749129 -5.972530 6.940782 -0.005106 -0.013668 -0.002266 -7.194981 -35.518811 -4.167662 -1.225889 69.611397 2.821258 -11.766296 -5.050128 -4.847694 -0.000957 0.005269 -0.000425
22.547284 126.925209 -47.203357 -15.386466 -27.984269 -1.958953 -0.376724 23.690887 1.686482 -0.097220 3.533824 0.259491 -0.154222 5.694430 0.414280 -0.366380 19.836272 1.419093 2.948156 9.434827 -2.113204 6.674732 -18.131786 -5.453340 -4.150307 -2.959218 -4.344374 -1.161724 -11.456991 -2.061595 -0.964706 -9.557629 -6.003025 0.070465 -0.847574 3.173554 -2.685318 -5.949541 -3.122487 4.313473 -5.957268 8.701640 -9.624829 -16.165487 8.145985 -8.532981 -3.958506 -2.414314 0.191680 -41.752108 0.242792 -26.464740 76.561155 -28.931552 0.752624 -5.973271 6.933969 -0.002188 -0.013116 -0.000971 -7.204512 -35.523013 -4.155869 -1.203695 69.603510 2.830761 -11.762265 -5.051437 -4.850499 0.000269 0.004602 0.000119
22.545961 126.923795 -47.203591 -15.398960 -27.974331 -1.958093 -0.369789 23.679807 1.687203 -0.094393 3.536399 0.260788 -0.155383 5.682654 0.410566 -0.359963 19.841142 1.418070 2.932087 9.416975 -2.100277 6.642836 -18.165310 -5.424437 -4.149818 -2.957473 -4.338813 -1.157844 -11.456713 -2.075396 -0.970110 -9.557781 -5.992672 0.022874 -0.886957 3.130006 -2.690706 -5.948021 -3.121524 4.294353 -5.979958 8.716603 -9.670546 -16.196069 8.150128 -8.529138 -3.941234 -2.308320 0.178247 -41.765149 0.257945 -26.483308 76.564450 -28.952907 0.758538 -5.974155 6.923699 0.001250 -0.012651 0.000555 -7.215258 -35.525652 -4.139131 -1.195680 69.594824 2.836510 -11.774075 -5.055992 -4.851639 0.001336 0.003973 0.000593
22.544427 126.922301 -47.204297 -15.409541 -27.964794 -1.962112 -0.359285 23.668123 1.694518 -0.102377 3.521468 0.254189 -0.145214 5.696613 0.417241 -0.356315 19.824873 1.415044 2.916170 9.403990 -2.087470 6.613674 -18.183792 -5.397453 -4.148181 -2.943304 -4.333670 -1.152518 -11.454663 -2.087497 -0.979131 -9.559393 -5.987391 0.002414 -0.899711 3.111228 -2.696860 -5.932774 -3.123628 4.271522 -6.002973 8.734446 -9.679807 -16.197616 8.144477 -8.562406 -3.958316 -2.208415 0.152256 -41.779656 0.284408 -26.485417 76.568391 -28.966383 0.763975 -5.972194 6.915577 0.002685 -0.014607 0.001191 -7.213052 -35.529693 -4.127386 -1.212678 69.590175 2.830631 -11.767680 -5.061504 -4.851289 0.002898 0.002276 0.001287
22.543728 126.921006 -47.204604 -15.416175 -27.958610 -1.965593 -0.352443 23.659596 1.699196 -0.110312 3.511904 0.249465 -0.137406 5.692596 0.419200 -0.362509 19.785627 1.410936 2.912136 9.425114 -2.073073 6.586172 -18.190109 -5.373676 -4.137283 -2.890262 -4.328166 -1.129413 -11.468076 -2.108043 -1.012060 -9.552920 -5.990847 0.003857 -0.896065 3.118661 -2.703136 -5.900978 -3.138755 4.255961 -6.005878 8.765981 -9.683058 -16.199741 8.139444 -8.606898 -3.977258 -2.124196 0.138570 -41.792338 0.305827 -26.508729 76.571422 -28.997393 0.761114 -5.966493 6.912341 0.005016 -0.017600 0.002226 -7.205168 -35.532664 -4.120414 -1.227618 69.586439 2.828666 -11.766240 -5.065449 -4.851493 0.003233 0.000356 0.001435
22.542864 126.920013 -47.204716 -15.424245 -27.956124 -1.971655 -0.356868 23.647936 1.694960 -0.100998 3.515287 0.254714 -0.144585 5.677664 0.414219 -0.353932 19.783831 1.415372 2.899519 9.413825 -2.064822 6.567552 -18.182188 -5.356801 -4.142122 -2.867117 -4.320386 -1.106152 -11.478455 -2.123304 -1.023618 -9.543879 -5.989072 -0.020198 -0.920650 3.091903 -2.710121 -5.894280 -3.145811 4.234971 -6.014189 8.786187 -9.778340 -16.279127 8.154951 -8.576366 -3.909960 -2.062209 0.145400 -41.797379 0.319413 -26.542136 76.570714 -29.022991 0.755370 -5.961389 6.903095 0.006013 -0.016271 0.002669 -7.198472 -35.534652 -4.113320 -1.216675 69.588494 2.849219 -11.751032 -5.070499 -4.848429 0.003142 -0.001369 0.001395
22.540218 126.918977 -47.206004 -15.445791 -27.951972 -1.984945 -0.336780 23.636775 1.711891 -0.096552 3.516898 0.257304 -0.147840 5.667334 0.412454 -0.351878 19.784343 1.416883 2.877314 9.394021 -2.055913 6.580756 -18.156238 -5.356760 -4.137105 -2.852557 -4.321717 -1.094587 -11.490070 -2.129565 -1.034356 -9.536971 -6.001752 -0.037538 -0.931062 3.083423 -2.717937 -5.894411 -3.149068 4.185538 -6.053189 8.812858 -9.817499 -16.295945 8.153122 -8.568794 -3.886621 -2.013674 0.157809 -41.803079 0.347838 -26.569644 76.567018 -29.037791 0.752659 -5.958813 6.898919 0.007249 -0.015236 0.003217 -7.195010 -35.541142 -4.087461 -1.207859 69.597395 2.870344 -11.743523 -5.078251 -4.851287 0.001778 -0.003150 0.000789
22.540046 126.918352 -47.206051 -15.454263 -27.951993 -1.991014 -0.336825 23.631858 1.711449 -0.095553 3.515038 0.257535 -0.157501 5.658780 0.409319 -0.338219 19.791056 1.423287 2.874191 9.396978 -2.054187 6.577472 -18.154790 -5.353599 -4.135669 -2.852964 -4.320139 -1.075969 -11.492614 -2.139265 -1.045075 -9.532226 -6.033674 -0.053359 -0.934684 3.091751 -2.729314 -5.912836 -3.151376 4.171494 -6.057794 8.826553 -9.865824 -16.323191 8.161920 -8.573481 -3.894040 -1.972307 0.162544 -41.803406 0.359901 -26.577994 76.565291 -29.039674 0.749274 -5.957182 6.894781 0.006722 -0.014412 0.002983 -7.195894 -35.545438 -4.080409 -1.222515 69.604185 2.868584 -11.721676 -5.082729 -4.855027 0.001637 -0.004468 0.000726
22.541081 126.917971 -47.205706 -15.457067 -27.953248 -1.993501 -0.343632 23.628541 1.706411 -0.095307 3.514226 0.257823 -0.159592 5.660949 0.410380 -0.336744 19.789283 1.425522 2.875516 9.400814 -2.054483 6.568287 -18.152394 -5.349487 -4.128098 -2.861923 -4.323405 -1.068371 -11.481244 -2.142310 -1.048862 -9.534137 -6.051007 -0.055095 -0.929887 3.086683 -2.740612 -5.945861 -3.157133 4.176197 -6.037800 8.837809 -9.925227 -16.369843 8.171976 -8.580924 -3.912349 -1.925809 0.167774 -41.801917 0.363403 -26.598348 76.564639 -29.053236 0.746832 -5.958424 6.891133 0.007499 -0.013018 0.003328 -7.196276 -35.549288 -4.076503 -1.227062 69.608071 2.870881 -11.720901 -5.081471 -4.855890 0.001069 -0.003496 0.000475
22.540778 126.917660 -47.206220 -15.470840 -27.953157 -1.999010 -0.350398 23.627768 1.702517 -0.087901 3.514491 0.260707 -0.150354 5.660477 0.412661 -0.342847 19.784284 1.426811 2.880843 9.406959 -2.055704 6.566898 -18.147196 -5.349397 -4.131307 -2.887671 -4.313311 -1.042507 -11.471222 -2.156639 -1.056854 -9.519235 -6.066806 -0.057279 -0.917955 3.083025 -2.742798 -5.971206 -3.165294 4.170253 -6.025507 8.849113 -9.981876 -16.418508 8.177910 -8.595358 -3.938467 -1.866540 0.169190 -41.799002 0.378663 -26.606696 76.561666 -29.056467 0.747468 -5.965318 6.888741 0.005840 -0.009480 0.002592 -7.198839 -35.557021 -4.068338 -1.218930 69.617954 2.893270 -11.716899 -5.082039 -4.859973 0.000417 -0.004123 0.000185
22.541095 126.917541 -47.206751 -15.474917 -27.952842 -2.004715 -0.345957 23.627088 1.708963 -0.107246 3.506817 0.254765 -0.133305 5.667122 0.417222 -0.347705 19.778669 1.427077 2.886716 9.413207 -2.056310 6.575149 -18.134872 -5.352668 -4.127158 -2.891188 -4.310561 -1.038314 -11.485719 -2.161636 -1.065490 -9.504304 -6.085409 -0.073231 -0.904396 3.056890 -2.745351 -5.991255 -3.170948 4.145627 -6.040254 8.866201 -9.984864 -16.409727 8.166789 -8.654787 -4.005402 -1.790594 0.157205 -41.795770 0.390695 -26.589616 76.560407 -29.041469 0.749093 -5.973065 6.888218 0.002992 -0.008271 0.001328 -7.237838 -35.565637 -4.061167 -1.164081 69.624357 2.954005 -11.708782 -5.083847 -4.883671 -0.000522 -0.004875 -0.000232
22.541018 126.917374 -47.208135 -15.489095 -27.950132 -2.007362 -0.344876 23.619535 1.708262 -0.100682 3.505642 0.258196 -0.144236 5.657521 0.414214 -0.332163 19.791551 1.428734 2.888973 9.415469 -2.056243 6.589620 -18.116252 -5.356253 -4.145922 -2.906145 -4.293941 -1.023407 -11.501451 -2.178052 -1.075201 -9.484924 -6.101983 -0.074148 -0.897502 3.051420 -2.754788 -6.011727 -3.171386 4.124197 -6.061080 8.876096 -10.054368 -16.466332 8.176541 -8.681689 -3.986145 -1.705095 0.148320 -41.794792 0.404426 -26.553481 76.558917 -29.008988 0.753322 -5.983265 6.892684 0.000017 -0.007198 0.000007 -7.242313 -35.572260 -4.049980 -1.154196 69.628245 2.967732 -11.704978 -5.085133 -4.891230 -0.000728 -0.003716 -0.000323
22.541881 126.917310 -47.209582 -15.491553 -27.947263 -2.008743 -0.347930 23.614686 1.707593 -0.099963 3.499228 0.260635 -0.146205 5.652385 0.413159 -0.335449 19.791479 1.425425 2.897174 9.428845 -2.056422 6.603639 -18.092563 -5.357493 -4.151864 -2.907225 -4.284602 -1.026022 -11.519538 -2.187577 -1.079286 -9.463529 -6.106507 -0.062690 -0.893239 3.048818 -2.760975 -6.021655 -3.169307 4.093901 -6.109893 8.881439 -10.120329 -16.502431 8.192222 -8.734204 -3.941526 -1.607180 0.132187 -41.794824 0.408046 -26.529809 76.551368 -28.985471 0.764953 -5.981322 6.888595 -0.000302 -0.006577 -0.000134 -7.252391 -35.578647 -4.049414 -1.151954 69.629931 2.973128 -11.687274 -5.083663 -4.898638 0.000075 -0.002848 0.000033
22.543703 126.917680 -47.210340 -15.497947 -27.949542 -2.000558 -0.356749 23.598131 1.702431 -0.091967 3.512999 0.256484 -0.149530 5.641455 0.413394 -0.340383 19.770841 1.422337 2.908925 9.466925 -2.057577 6.628589 -18.027227 -5.360922 -4.174004 -2.905397 -4.277860 -1.010137 -11.515381 -2.198307 -1.086063 -9.447660 -6.104933 -0.051207 -0.888319 3.041687 -2.767833 -6.010761 -3.168541 4.098499 -6.108944 8.878875 -10.209932 -16.568752 8.225441 -8.831253 -3.903000 -1.491115 0.125500 -41.790705 0.402928 -26.485838 76.551510 -28.949118 0.769560 -5.983582 6.890010 -0.002273 -0.005280 -0.001009 -7.276651 -35.578818 -4.058756 -1.098529 69.627755 3.019562 -11.661761 -5.080189 -4.907237 -0.000843 -0.002398 -0.000374
